<?xml version="1.0" encoding="UTF-8" standalone="no"?>
<!-- Created with Inkscape (http://www.inkscape.org/) -->

<svg
   width="210mm"
   height="297mm"
   viewBox="0 0 210 297"
   version="1.1"
   id="svg5"
   inkscape:version="1.2 (dc2aedaf03, 2022-05-15)"
   sodipodi:docname="Music-App-logo.svg"
   xmlns:inkscape="http://www.inkscape.org/namespaces/inkscape"
   xmlns:sodipodi="http://sodipodi.sourceforge.net/DTD/sodipodi-0.dtd"
   xmlns="http://www.w3.org/2000/svg"
   xmlns:svg="http://www.w3.org/2000/svg">
  <sodipodi:namedview
     id="namedview7"
     pagecolor="#ffffff"
     bordercolor="#000000"
     borderopacity="0.25"
     inkscape:showpageshadow="2"
     inkscape:pageopacity="0.0"
     inkscape:pagecheckerboard="0"
     inkscape:deskcolor="#d1d1d1"
     inkscape:document-units="mm"
     showgrid="false"
     inkscape:zoom="0.72070006"
     inkscape:cx="167.89231"
     inkscape:cy="515.47103"
     inkscape:window-width="1890"
     inkscape:window-height="980"
     inkscape:window-x="15"
     inkscape:window-y="53"
     inkscape:window-maximized="1"
     inkscape:current-layer="layer1" />
  <defs
     id="defs2" />
  <g
     inkscape:label="Layer 1"
     inkscape:groupmode="layer"
     id="layer1">
    <path
       id="path61"
       style="opacity:1;fill:#000000;stroke-width:0.256331"
       d="M 100.97472 21.815723 C 99.614942 36.002991 100.27866 56.317841 88.839022 59.33488 C 77.399387 62.351917 73.125481 62.320171 65.586178 38.008016 C 47.047808 56.920936 86.145353 68.737498 80.643656 87.227234 C 72.047712 116.11593 55.656002 91.912189 46.421973 85.238208 C 36.892802 117.57177 57.820546 110.11749 56.491125 137.45931 C 56.822976 137.01857 57.159381 136.581 57.50295 136.14931 C 68.641633 121.87927 86.213784 112.91951 104.28717 112.16008 C 109.13378 111.97801 114.00556 112.29799 118.77311 113.19619 C 133.94314 115.91105 147.81868 124.62101 157.24467 136.76219 C 160.27779 111.57289 199.59799 100.04386 161.86609 62.311959 C 153.30535 83.631772 143.46773 90.478807 133.61407 87.227234 C 118.68502 82.300853 155.56239 48.847963 133.21978 35.41696 C 125.1106 50.945555 106.43499 46.656912 100.97472 21.815723 z M 107.12886 115.80844 C 83.382073 115.80844 62.846584 129.74371 53.259798 149.86889 A 15 25 0 0 0 51.480579 149.69215 A 15 25 0 0 0 39.347469 160.0078 A 9 15 0 0 0 37.511922 159.69206 A 9 15 0 0 0 28.511955 174.69218 A 9 15 0 0 0 37.511922 189.69178 A 9 15 0 0 0 39.347469 189.37604 A 15 25 0 0 0 51.480579 199.6922 A 15 25 0 0 0 52.617977 199.61882 A 15 25 0 0 0 58.550431 196.7358 C 55.696183 190.22068 54.109359 183.01982 54.109359 175.44149 C 54.109359 167.45136 55.872874 159.88057 59.026888 153.09143 C 67.446802 134.96721 85.798507 122.42405 107.12886 122.42405 C 128.8817 122.42405 147.53665 135.46911 155.71918 154.17509 C 158.5658 160.68274 160.14836 167.87385 160.14836 175.44149 C 160.14836 183.42314 158.38837 190.98603 155.24065 197.76984 A 15 25 0 0 0 161.00051 201.0084 A 15 25 0 0 0 162.77714 201.19289 A 15 25 0 0 0 174.91025 190.87724 A 9 15 0 0 0 176.7458 191.19298 A 9 15 0 0 0 185.74577 176.19286 A 9 15 0 0 0 176.7458 161.19326 A 9 15 0 0 0 174.9149 161.50694 A 15 25 0 0 0 162.77714 151.19284 A 15 25 0 0 0 161.65473 151.29774 C 152.37377 130.40628 131.43361 115.80844 107.12886 115.80844 z M 107.12886 125.44196 A 50 50 0 0 0 57.128813 175.442 A 50 50 0 0 0 107.12886 225.44205 A 50 50 0 0 0 157.12891 175.442 A 50 50 0 0 0 107.12886 125.44196 z M 94.067643 129.80551 L 98.034843 152.15764 A 25 25 0 0 0 92.874434 154.90372 A 25 25 0 0 0 88.516561 158.78824 L 68.945662 147.24062 A 47.5 47.5 0 0 1 80.04576 136.41958 A 47.5 47.5 0 0 1 94.067643 129.80551 z M 107.12886 152.94209 A 22.5 22.5 0 0 1 129.62878 175.442 A 22.5 22.5 0 0 1 107.12886 197.94192 A 22.5 22.5 0 0 1 84.628943 175.442 A 22.5 22.5 0 0 1 107.12886 152.94209 z M 107.12886 173.94184 A 1.5 1.5 0 0 0 105.62869 175.442 A 1.5 1.5 0 0 0 107.12886 176.94217 A 1.5 1.5 0 0 0 108.62903 175.442 A 1.5 1.5 0 0 0 107.12886 173.94184 z M 125.76028 192.10714 L 145.31206 203.64338 A 47.5 47.5 0 0 1 134.21093 214.46546 A 47.5 47.5 0 0 1 120.19008 221.0785 L 116.21875 198.70467 A 25 25 0 0 0 121.38226 195.9808 A 25 25 0 0 0 125.76028 192.10714 z " />
  </g>
</svg>
