<?xml version="1.0" encoding="UTF-8" standalone="no"?>
<!-- Created with Inkscape (http://www.inkscape.org/) -->

<svg
   width="210mm"
   height="297mm"
   viewBox="0 0 210 297"
   version="1.1"
   id="svg5"
   sodipodi:docname="Music-App-logo.svg"
   inkscape:version="1.2 (dc2aedaf03, 2022-05-15)"
   xmlns:inkscape="http://www.inkscape.org/namespaces/inkscape"
   xmlns:sodipodi="http://sodipodi.sourceforge.net/DTD/sodipodi-0.dtd"
   xmlns="http://www.w3.org/2000/svg"
   xmlns:svg="http://www.w3.org/2000/svg">
  <sodipodi:namedview
     id="namedview7"
     pagecolor="#ffffff"
     bordercolor="#000000"
     borderopacity="0.25"
     inkscape:showpageshadow="2"
     inkscape:pageopacity="0.0"
     inkscape:pagecheckerboard="0"
     inkscape:deskcolor="#d1d1d1"
     inkscape:document-units="mm"
     showgrid="false"
     inkscape:zoom="0.36035003"
     inkscape:cx="22.200637"
     inkscape:cy="373.2482"
     inkscape:window-width="1890"
     inkscape:window-height="980"
     inkscape:window-x="15"
     inkscape:window-y="53"
     inkscape:window-maximized="1"
     inkscape:current-layer="layer1" />
  <defs
     id="defs2" />
  <g
     inkscape:label="Layer 1"
     inkscape:groupmode="layer"
     id="layer1">
    <path
       id="path61"
       style="opacity:1;fill:#000000;stroke-width:0.256331"
       d="M 107.12886 125.44196 A 50 50 0 0 0 57.128813 175.442 A 50 50 0 0 0 107.12886 225.44205 A 50 50 0 0 0 157.12891 175.442 A 50 50 0 0 0 107.12886 125.44196 z M 94.067643 129.80551 L 98.034843 152.15764 A 25 25 0 0 0 92.874434 154.90372 A 25 25 0 0 0 88.516561 158.78824 L 68.945662 147.24062 A 47.5 47.5 0 0 1 80.04576 136.41958 A 47.5 47.5 0 0 1 94.067643 129.80551 z M 107.12886 152.94209 A 22.5 22.5 0 0 1 129.62878 175.442 A 22.5 22.5 0 0 1 107.12886 197.94192 A 22.5 22.5 0 0 1 84.628943 175.442 A 22.5 22.5 0 0 1 107.12886 152.94209 z M 107.12886 173.94184 A 1.5 1.5 0 0 0 105.62869 175.442 A 1.5 1.5 0 0 0 107.12886 176.94217 A 1.5 1.5 0 0 0 108.62903 175.442 A 1.5 1.5 0 0 0 107.12886 173.94184 z M 125.76028 192.10714 L 145.31206 203.64338 A 47.5 47.5 0 0 1 134.21093 214.46546 A 47.5 47.5 0 0 1 120.19008 221.0785 L 116.21875 198.70467 A 25 25 0 0 0 121.38226 195.9808 A 25 25 0 0 0 125.76028 192.10714 z " />
    <path
       id="circle307"
       style="color:#000000;opacity:1;fill:#008080;-inkscape-stroke:none"
       d="M 107.12886 115.80844 C 83.382048 115.80844 62.846593 129.74369 53.259798 149.86889 A 15 25 0 0 1 54.639042 150.26421 A 15 25 0 0 0 53.259798 149.86889 C 53.028966 150.35347 52.8045 150.84176 52.586454 151.3334 C 52.368408 151.82504 52.156909 152.32009 51.951868 152.81858 C 51.746827 153.31707 51.548372 153.8188 51.356555 154.32391 C 51.164738 154.82903 50.979408 155.33735 50.801034 155.84889 C 50.622659 156.36042 50.451049 156.87524 50.286336 157.39298 C 50.121623 157.91071 49.963813 158.43143 49.81298 158.95516 C 49.662147 159.47888 49.518216 160.00541 49.381482 160.5349 C 49.24479 161.06424 49.115259 161.59682 48.992875 162.13171 C 49.115292 161.59665 49.244748 161.0644 49.381482 160.5349 C 49.518216 160.00541 49.662147 159.47888 49.81298 158.95516 C 49.963813 158.43143 50.121623 157.91071 50.286336 157.39298 C 50.451049 156.87524 50.622659 156.36042 50.801034 155.84889 C 50.979408 155.33735 51.164738 154.82903 51.356555 154.32391 C 51.548372 153.8188 51.746827 153.31706 51.951868 152.81858 C 52.156909 152.32009 52.368408 151.82504 52.586454 151.3334 C 52.8045 150.84176 53.028966 150.35347 53.259798 149.86889 A 15 25 0 0 0 51.480579 149.69215 A 15 25 0 0 0 39.347469 160.0078 A 9 15 0 0 0 37.511922 159.69206 A 9 15 0 0 0 28.511955 174.69218 A 9 15 0 0 0 37.511922 189.69178 A 9 15 0 0 0 39.347469 189.37604 A 15 25 0 0 0 51.480579 199.6922 A 15 25 0 0 0 52.617977 199.61882 C 52.412367 199.15675 52.212663 198.69169 52.01853 198.22356 C 51.824398 197.75543 51.635663 197.28423 51.45319 196.81021 C 51.270718 196.33619 51.094136 195.85901 50.923507 195.37929 C 50.752878 194.89956 50.588599 194.41709 50.429997 193.93183 C 50.271394 193.44658 50.118536 192.95896 49.972144 192.46836 C 49.825751 191.97775 49.685497 191.48412 49.551497 190.98834 C 49.417497 190.49256 49.289999 189.99464 49.168575 189.49386 C 49.047151 188.99308 48.932042 188.48947 48.823376 187.98387 C 48.714711 187.47828 48.612141 186.97069 48.516418 186.46045 C 48.420696 185.95022 48.331849 185.43777 48.249251 184.92308 C 48.166654 184.40839 48.090647 183.89125 48.021358 183.37227 C 47.952069 182.85329 47.88957 182.33214 47.833773 181.80906 C 47.777975 181.28598 47.728618 180.76097 47.686495 180.23396 C 47.644372 179.70695 47.60934 179.17825 47.581075 178.64749 C 47.55281 178.11674 47.53122 177.58399 47.516996 177.04966 C 47.502772 176.51533 47.495809 175.97921 47.495809 175.44149 C 47.495809 174.86971 47.504029 174.29997 47.520097 173.73203 C 47.536165 173.16409 47.56001 172.59783 47.591927 172.03394 C 47.623844 171.47006 47.663753 170.90839 47.7113 170.34878 C 47.758846 169.78916 47.814223 169.23166 47.877181 168.67653 C 47.940139 168.12139 48.010387 167.56867 48.088538 167.01823 C 48.166665 166.46796 48.252794 165.91976 48.345886 165.3744 C 48.252761 165.91993 48.166688 166.46779 48.088538 167.01823 C 48.010387 167.56867 47.940139 168.12139 47.877181 168.67653 C 47.814223 169.23166 47.758846 169.78916 47.7113 170.34878 C 47.663753 170.90839 47.623844 171.47006 47.591927 172.03394 C 47.56001 172.59783 47.536165 173.16409 47.520097 173.73203 C 47.504029 174.29997 47.495809 174.86971 47.495809 175.44149 C 47.495809 175.97921 47.502772 176.51533 47.516996 177.04966 C 47.53122 177.58399 47.55281 178.11674 47.581075 178.64749 C 47.60934 179.17825 47.644372 179.70695 47.686495 180.23396 C 47.728618 180.76097 47.777975 181.28598 47.833773 181.80906 C 47.88957 182.33214 47.952069 182.85329 48.021358 183.37227 C 48.090647 183.89125 48.166654 184.40839 48.249251 184.92308 C 48.331849 185.43777 48.420696 185.95022 48.516418 186.46045 C 48.612141 186.97069 48.714711 187.47828 48.823376 187.98387 C 48.932042 188.48947 49.047151 188.99308 49.168575 189.49386 C 49.289999 189.99464 49.417497 190.49256 49.551497 190.98834 C 49.685497 191.48412 49.825751 191.97775 49.972144 192.46836 C 50.118536 192.95896 50.271394 193.44658 50.429997 193.93183 C 50.588599 194.41709 50.752878 194.89956 50.923507 195.37929 C 51.094136 195.85901 51.270718 196.33619 51.45319 196.81021 C 51.635663 197.28423 51.824397 197.75543 52.01853 198.22356 C 52.212663 198.69169 52.412367 199.15675 52.617977 199.61882 A 15 25 0 0 0 58.550431 196.7358 C 55.69618 190.22068 54.109359 183.01983 54.109359 175.44149 C 54.109359 167.45135 55.872871 159.88058 59.026888 153.09143 A 15 25 0 0 0 57.78407 152.02225 A 15 25 0 0 1 59.026888 153.09143 C 67.44681 134.96719 85.798484 122.42405 107.12886 122.42405 C 128.88172 122.42405 147.53664 135.4691 155.71918 154.17509 A 15 25 0 0 1 157.00954 153.16636 A 15 25 0 0 0 155.71918 154.17509 C 158.56581 160.68275 160.14836 167.87384 160.14836 175.44149 C 160.14836 183.42315 158.38837 190.98602 155.24065 197.76984 A 15 25 0 0 0 161.00051 201.0084 C 161.23123 200.52391 161.45539 200.03596 161.67334 199.54441 C 161.89128 199.05286 162.10298 198.55762 162.30792 198.05923 C 162.51287 197.56084 162.71151 197.05891 162.90323 196.55389 C 163.09496 196.04887 163.27995 195.54087 163.45824 195.02944 C 163.63653 194.51801 163.80778 194.00349 163.97242 193.48586 C 164.13706 192.96824 164.29501 192.4473 164.44578 191.92369 C 164.59654 191.40007 164.74008 190.87383 164.87676 190.34445 C 165.01343 189.81507 165.143 189.28258 165.26536 188.74765 C 165.38773 188.21272 165.50325 187.6751 165.61108 187.13483 C 165.71891 186.59456 165.81927 186.0519 165.91235 185.50651 C 166.00544 184.96111 166.09107 184.41298 166.16919 183.86268 C 166.2473 183.31237 166.31813 182.7599 166.38106 182.2049 C 166.44399 181.6499 166.4989 181.09265 166.54642 180.53317 C 166.59395 179.97369 166.63389 179.41174 166.6658 178.848 C 166.6977 178.28425 166.72156 177.71874 166.73763 177.15094 C 166.75369 176.58315 166.76191 176.01312 166.76191 175.44149 C 166.76191 174.90458 166.75491 174.36943 166.74073 173.8359 C 166.72655 173.30237 166.70534 172.77062 166.67716 172.24065 C 166.64899 171.71068 166.61374 171.18248 166.57174 170.65625 C 166.52975 170.13002 166.48061 169.60554 166.42498 169.08322 C 166.36935 168.5609 166.307 168.04082 166.23792 167.52259 C 166.16883 167.00436 166.09341 166.48781 166.01106 165.97385 C 165.9287 165.45989 165.83984 164.94857 165.74441 164.43906 C 165.64897 163.92955 165.54682 163.42208 165.43848 162.91719 C 165.33014 162.4123 165.21538 161.90987 165.09432 161.40979 C 164.97325 160.9097 164.84603 160.41196 164.71243 159.91685 C 164.57882 159.42175 164.43878 158.92938 164.29281 158.43942 C 164.14685 157.94947 163.99465 157.46212 163.83651 156.9775 C 163.67837 156.49288 163.51417 156.0107 163.34403 155.53159 C 163.1739 155.05249 162.99785 154.57616 162.8159 154.10274 C 162.63396 153.62932 162.4462 153.15901 162.25263 152.69146 C 162.05905 152.2239 161.85976 151.75925 161.65473 151.29774 A 15 25 0 0 0 160.24397 151.59902 A 15 25 0 0 1 161.65473 151.29774 C 152.37376 130.40626 131.43363 115.80844 107.12886 115.80844 z M 161.65473 151.29774 C 161.85976 151.75925 162.05905 152.22391 162.25263 152.69146 C 162.4462 153.15901 162.63396 153.62932 162.8159 154.10274 C 162.99785 154.57616 163.1739 155.05249 163.34403 155.53159 C 163.51417 156.0107 163.67837 156.49288 163.83651 156.9775 C 163.99465 157.46212 164.14685 157.94947 164.29281 158.43942 C 164.43878 158.92938 164.57882 159.42175 164.71243 159.91685 C 164.84603 160.41196 164.97325 160.9097 165.09432 161.40979 C 165.21538 161.90987 165.33014 162.4123 165.43848 162.91719 C 165.54682 163.42208 165.64897 163.92955 165.74441 164.43906 C 165.83984 164.94857 165.9287 165.45989 166.01106 165.97385 C 166.09341 166.48781 166.16883 167.00436 166.23792 167.52259 C 166.307 168.04082 166.36935 168.5609 166.42498 169.08322 C 166.48061 169.60554 166.52975 170.13002 166.57174 170.65625 C 166.61374 171.18248 166.64899 171.71068 166.67716 172.24065 C 166.70534 172.77062 166.72655 173.30237 166.74073 173.8359 C 166.75491 174.36943 166.76191 174.90458 166.76191 175.44149 C 166.76191 176.01312 166.75369 176.58315 166.73763 177.15094 C 166.72156 177.71874 166.6977 178.28425 166.6658 178.848 C 166.63389 179.41174 166.59395 179.97369 166.54642 180.53317 C 166.4989 181.09265 166.44399 181.6499 166.38106 182.2049 C 166.31813 182.7599 166.2473 183.31237 166.16919 183.86268 C 166.09107 184.41298 166.00544 184.96111 165.91235 185.50651 C 165.81927 186.0519 165.71891 186.59456 165.61108 187.13483 C 165.50325 187.6751 165.38773 188.21272 165.26536 188.74765 C 165.143 189.28259 165.01343 189.81507 164.87676 190.34445 C 164.74008 190.87383 164.59654 191.40007 164.44578 191.92369 C 164.29501 192.4473 164.13706 192.96824 163.97242 193.48586 C 163.80778 194.00349 163.63653 194.51801 163.45824 195.02944 C 163.27995 195.54087 163.09496 196.04887 162.90323 196.55389 C 162.71151 197.05891 162.51287 197.56084 162.30792 198.05923 C 162.10298 198.55762 161.89128 199.05286 161.67334 199.54441 C 161.45539 200.03596 161.23123 200.52391 161.00051 201.0084 A 15 25 0 0 0 162.77714 201.19289 A 15 25 0 0 0 174.91025 190.87724 A 9 15 0 0 0 176.7458 191.19298 A 9 15 0 0 0 185.74577 176.19286 A 9 15 0 0 0 176.7458 161.19326 A 9 15 0 0 0 174.9149 161.50694 A 15 25 0 0 0 162.77714 151.19284 A 15 25 0 0 0 161.65473 151.29774 z M 55.065373 150.43991 A 15 25 0 0 1 56.002266 150.87606 A 15 25 0 0 0 55.065373 150.43991 z M 56.473556 151.1391 A 15 25 0 0 1 57.379443 151.73286 A 15 25 0 0 0 56.473556 151.1391 z M 159.80782 151.74681 A 15 25 0 0 0 158.8425 152.12508 A 15 25 0 0 1 159.80782 151.74681 z M 158.36036 152.35866 A 15 25 0 0 0 157.41675 152.90643 A 15 25 0 0 1 158.36036 152.35866 z M 48.992875 162.13222 C 48.870459 162.66728 48.75504 163.20465 48.64716 163.74504 C 48.539313 164.28527 48.438987 164.82853 48.345886 165.37389 C 48.439011 164.82836 48.53928 164.28544 48.64716 163.74504 C 48.755007 163.20481 48.870501 162.66711 48.992875 162.13222 z " />
    <path
       style="opacity:0.52;fill:#ff7f2a;stroke-width:11.4435"
       d="m 86.825951,-55.97386 c 9.070418,10.99343 23.904499,24.88886 17.948819,35.111281 -5.955682,10.222421 -9.000208,13.2220831 -31.522613,1.361874 0.264847,26.4820873 36.266543,7.191476 45.450483,24.1559973 14.34916,26.5056727 -14.35616,20.9817017 -25.604833,22.7919307 16.125153,29.601449 25.652303,9.532283 44.045863,29.805929 -0.077,-0.546308 -0.14853,-1.093586 -0.21084,-1.641776 -2.21421,-17.966702 3.87566,-36.727562 16.11849,-50.0443919 3.29833,-3.5558101 6.96945,-6.7744145 10.97575,-9.5104625 12.64654,-8.8071426 28.61686,-12.4597566 43.86717,-10.5398156 -15.6668,-19.956286 3.9846,-55.912106 -49.37642,-55.912106 9.02204,21.128759 6.90737,32.92657 -2.35944,37.594956 -14.03992,7.072958 -11.61841,-42.658054 -36.9142,-36.35659 5.24633,16.714442 -10.99184,26.887567 -32.418229,13.183174 z"
       id="rect1535"
       transform="rotate(45)" />
    <path
       id="path1823"
       style="opacity:0.52;fill:#ff7f2a;stroke-width:11.4435"
       d="M 86.825951 -55.97386 C 95.89636 -44.980441 110.73044 -31.08499 104.77477 -20.862579 C 103.28846 -18.311452 101.98361 -16.210429 100.51193 -14.677691 C 106.73924 -13.181325 108.79936 -15.931987 111.85527 -21.177195 C 116.40755 -28.990797 105.06873 -39.611989 98.135681 -48.014918 C 114.51313 -37.539838 126.92478 -45.315563 122.9147 -58.091397 C 142.24976 -62.907978 140.39919 -24.895868 151.13074 -30.302152 C 152.11666 -30.798833 152.99215 -31.40512 153.75802 -32.117497 C 142.31204 -31.604115 142.99287 -75.073099 119.24418 -69.157034 C 124.4905 -52.442609 108.25232 -42.269481 86.825951 -55.97386 z M 73.252157 -19.500705 C 73.517003 6.9813557 109.51871 -12.309212 118.70264 4.6552923 C 120.50554 7.9855941 121.62801 10.809461 122.19156 13.20656 C 125.87557 11.132484 127.16657 6.9456443 122.50106 -1.6724704 C 116.73291 -12.32735 97.127833 -4.275692 90.206337 -12.294137 C 86.186841 -13.21273 80.823327 -15.513757 73.252157 -19.500705 z M 158.51782 -70.3954 C 160.3987 -65.99056 161.78862 -61.996691 162.73754 -58.382992 C 191.20656 -54.136166 179.78987 -30.166901 190.67551 -16.300831 C 179.0188 -17.768352 166.81184 -14.97651 157.14535 -8.2446907 C 154.0831 -6.1533679 151.27669 -3.6931905 148.75559 -0.97527277 C 139.39767 9.2035672 134.74306 23.54331 136.43551 37.276321 C 136.48314 37.695338 136.5378 38.113919 136.59665 38.531496 C 125.83724 26.672314 119.04659 32.87256 110.9275 26.295459 C 104.75228 27.159441 97.556032 26.729769 93.097807 27.447223 C 109.22294 57.048643 118.75013 36.979527 137.14367 57.253152 C 137.06667 56.706845 136.99514 56.159566 136.93283 55.611376 C 134.71862 37.644692 140.8085 18.883801 153.05132 5.5669841 C 156.34965 2.0111776 160.02077 -1.2074331 164.02707 -3.9434784 C 176.67359 -12.750612 192.64395 -16.403233 207.89424 -14.483294 C 192.22746 -34.43956 211.87878 -70.3954 158.51782 -70.3954 z "
       transform="rotate(45)" />
    <path
       id="path1830"
       style="opacity:0.52;fill:#ff7f2a;stroke-width:11.4435"
       d="M 86.825951 -55.97386 C 95.89636 -44.980441 110.73044 -31.08499 104.77477 -20.862579 C 104.48607 -20.367044 104.20862 -19.903691 103.93104 -19.442971 C 113.87044 -14.561989 115.516 -16.333116 118.51044 -21.47281 C 121.74355 -27.02217 113.69083 -34.565655 108.76685 -40.533564 C 120.3984 -33.093974 129.21328 -38.616449 126.36524 -47.690071 C 140.09735 -51.110896 138.78282 -24.113676 146.40456 -27.953313 C 148.51878 -29.018407 149.94391 -30.770518 150.52599 -33.291552 C 142.18793 -40.149843 140.51165 -74.454999 119.24418 -69.157034 C 124.4905 -52.442609 108.25232 -42.269481 86.825951 -55.97386 z M 73.252157 -19.500705 C 73.515639 6.8449225 109.14442 -12.10593 118.55429 4.4016994 C 124.99653 4.1157751 131.75492 2.8782598 126.07145 -7.6202092 C 121.65739 -15.773835 105.83386 -8.5028545 102.16357 -16.704972 C 97.430188 -10.072246 92.326342 -9.4563149 73.252157 -19.500705 z M 158.51782 -70.3954 C 163.30232 -59.190559 164.95432 -50.61063 164.06909 -44.325764 C 172.15523 -38.028405 168.38746 -25.783055 174.49015 -18.009477 C 166.21134 -19.051744 157.54149 -17.069349 150.67617 -12.288291 C 148.50131 -10.802991 146.50837 -9.0553967 144.71784 -7.125082 C 138.07168 0.10410821 134.76578 10.288812 135.96779 20.042239 C 136.00161 20.339832 136.04035 20.636894 136.08216 20.933468 C 130.52722 14.810739 126.46218 15.463675 122.44113 14.483659 C 124.89046 29.674856 102.67291 25.906318 93.097807 27.447223 C 109.22294 57.048643 118.75013 36.979527 137.14367 57.253152 C 137.06667 56.706845 136.99514 56.159566 136.93283 55.611376 C 134.71862 37.644692 140.8085 18.883801 153.05132 5.5669841 C 156.34965 2.0111776 160.02077 -1.2074331 164.02707 -3.9434784 C 176.67359 -12.750612 192.64395 -16.403233 207.89424 -14.483294 C 192.22746 -34.43956 211.87878 -70.3954 158.51782 -70.3954 z "
       transform="rotate(45)" />
  </g>
</svg>
